<svg width="138" height="60" viewBox="0 0 138 60" fill="none" xmlns="http://www.w3.org/2000/svg">
<g clip-path="url(#clip0)">
<path d="M49.9998 24.4848C49.7553 12.0909 40.6964 1.9697 28.3071 0.242424C27.192 0.0757576 26.092 0 24.9921 0C23.8922 0 22.7923 0.0757576 21.6924 0.242424C9.31844 1.9697 0.244199 12.0909 -0.000225418 24.4848C-0.0766079 28.7576 1.03858 33 3.08563 36.7576C5.28545 40.803 8.52406 43.6212 11.7627 46.803C11.8085 46.8636 11.8391 46.9394 11.9002 46.9849C16.1623 51.2121 20.4245 55.4242 24.656 59.6667C24.8241 59.8333 24.9921 60.0152 24.9921 60.0152C24.9921 60.0152 25.1602 59.8485 25.3282 59.6667C29.5751 55.4242 33.8372 51.2121 38.0841 46.9849C38.1299 46.9394 38.1758 46.8636 38.2216 46.803C41.4602 43.6212 44.6988 40.803 46.8986 36.7576C48.9457 33 50.0762 28.7576 49.9998 24.4848Z" fill="#77C216"/>
<path d="M3.31445 37.1816C5.49899 40.9998 8.63067 43.7422 11.7471 46.8028C11.7929 46.8635 11.8235 46.9392 11.8846 46.9847C16.1467 51.2119 20.4089 55.4241 24.6404 59.6665C24.8085 59.8332 24.9765 60.015 24.9765 60.015V15.6816L3.31445 37.1816Z" fill="#FFCA00"/>
<path d="M46.6699 37.1816C44.4854 40.9998 41.3537 43.7422 38.2373 46.8028C38.1914 46.8635 38.1609 46.9392 38.0998 46.9847C33.8376 51.2119 29.5755 55.4241 25.3439 59.6665C25.1759 59.8332 25.0078 60.015 25.0078 60.015V15.6816L46.6699 37.1816Z" fill="#FFA200"/>
</g>
<path d="M78.8562 6.90909V15.3743H81.1218L85.4471 6.90909H91.6982L85.5604 16.7749L91.9453 28H85.8178L81.7706 20.0703H78.8562V28H73.9336V20.0703H71.1119L66.9308 28H60.8445L67.3942 16.8366L61.0298 6.90909H67.3118L71.8018 15.3743H73.9336V6.90909H78.8562ZM107.151 28L100.436 19.2464H99.4888V28H94.3912V6.90909H99.4888V15.0962H100.498L107.985 6.90909H114.627L105.173 17.228L113.567 28H107.151ZM121.725 6.90909L125.577 13.5721H125.742L129.634 6.90909H135.34L128.975 17.4545L135.546 28H129.696L125.742 21.2649H125.577L121.622 28H115.814L122.354 17.4545L115.979 6.90909H121.725Z" fill="#2F2F2F"/>
<path d="M58.7244 54H59.0568C62.1165 54 63.1222 51.5028 63.3182 45.9205L63.6165 37.5341H71.3636V54H72.429V36.5455H62.5938L62.2699 45.6222C62.0909 50.9062 61.2898 52.9858 59.1506 52.9858H58.7244V54ZM81.5947 54L83.5891 48.4176H91.1743L93.1686 54H94.2936L87.9953 36.5455H86.768L80.4697 54H81.5947ZM83.9385 47.429L87.3391 37.9176H87.4243L90.8249 47.429H83.9385ZM102.349 36.5455V54H103.389L114.52 38.4801H114.622V54H115.687V36.5455H114.639L103.508 52.0824H103.406V36.5455H102.349ZM110.488 32.1818C110.488 33.0767 110.011 33.6733 109.023 33.6733C108.034 33.6733 107.565 33.0767 107.565 32.1818H106.577C106.577 33.5966 107.514 34.5256 109.023 34.5256C110.548 34.5256 111.477 33.5966 111.477 32.1818H110.488ZM135.504 54H136.783L130.092 44.5994L135.982 36.5455H134.703L128.831 44.5653H126.59V36.5455H125.524V54H126.59V45.5455H129.479L135.504 54Z" fill="#2F2F2F"/>
<defs>
<clipPath id="clip0">
<rect width="50" height="60" fill="white"/>
</clipPath>
</defs>
</svg>
