<svg width="28" height="28" viewBox="0 0 28 28" fill="none" xmlns="http://www.w3.org/2000/svg">
<circle cx="14" cy="14" r="14" fill="#528DFF" fill-opacity="0.88"/>
<path fill-rule="evenodd" clip-rule="evenodd" d="M11.6328 9.25568L13.0177 6H14.9826L15.3883 6.95529L11.6328 9.25568ZM11.2374 10.1875L15.6212 7.50195L16.5488 9.68484L9.65625 13.9075L11.2374 10.1875ZM16.7815 10.2285L9.26069 14.8376L8.04688 17.6906H9.09403L17.7103 12.4114L16.7815 10.2285ZM10.2148 17.6905L17.9396 12.957L18.8683 15.1399L14.705 17.6905H10.2148ZM19.102 15.6865L15.8301 17.6914H19.954L19.102 15.6865ZM21.5789 18H6.42105C6.18779 18 6 18.2231 6 18.5V19.5C6 19.777 6.18779 20 6.42105 20H21.5789C21.8122 20 22 19.777 22 19.5V18.5C22 18.223 21.8122 18 21.5789 18Z" fill="white"/>
</svg>
