<svg width="28" height="28" viewBox="0 0 28 28" fill="none" xmlns="http://www.w3.org/2000/svg">
<circle cx="14" cy="14" r="14" fill="#FFCA00"/>
<path d="M13.9231 6C11.4215 6 9 7.94081 9 10.6859C9 14.2477 11.6667 14.9936 11.6667 17.4872L16.1795 17.4872C16.1795 14.9936 18.8462 14.2477 18.8462 10.6859C18.8462 7.94082 16.4247 6 13.9231 6ZM13.4679 7.05128C13.7353 7.03863 13.9621 7.17447 13.9551 7.44231C13.9619 7.65712 13.7725 7.85867 13.5577 7.86539C12.0274 8.04387 10.8462 9.34083 10.8462 10.9231C10.8462 11.2382 10.893 11.5408 10.9808 11.8269C11.0662 12.0375 10.9354 12.3058 10.718 12.3718C10.5005 12.4377 10.2446 12.2867 10.1987 12.0641C10.0874 11.702 10.0256 11.3215 10.0256 10.9231C10.0256 8.92977 11.5312 7.27719 13.4679 7.05128ZM11.6667 18.3077L11.6667 19.1282L16.1795 19.1282L16.1795 18.3077L11.6667 18.3077ZM11.6667 19.9487C11.6667 20.4201 12.0543 20.7692 12.4872 20.7693L15.359 20.7692C15.7919 20.7693 16.1795 20.4202 16.1795 19.9487L11.6667 19.9487ZM13.1026 21.1795C13.1026 21.6341 13.4685 22 13.9231 22C14.3777 22 14.7436 21.6341 14.7436 21.1795L13.1026 21.1795Z" fill="white"/>
</svg>
